# xmcd
#
# Track frame offsets:
#	150
#	17756
#	29841
#	46591
#	56473
#	76844
#	90067
#	106470
#	126760
#	138166
#	159638
#	171938
#	186470
#	204132
#	217687
#
# Disc length: 3096 seconds
# Revision: 0
# Processed by: cddbd v1.5.2PL0 Copyright (c) Steve Scherf et al.
# Submitted via: dBpowerAMP V12.0
#
DISCID=b80c160f
DTITLE=Various Artist - Prime Cuts of Bluegrass Volume 95
DYEAR=2008
DGENRE=Bluegrass
TTITLE0=Kati Penn - Gonna Take A Train
TTITLE1=Wayne Taylor - Dreamin' Of A Sea
TTITLE2=Tim O'Brien - Where's Love Come From
TTITLE3=Ralph Stanley - Dixieland (My Old Home Town)
TTITLE4=Cedar Hill - For Me, It's Hello
TTITLE5=Big Country Bluegrass - High Alleghenies
TTITLE6=Next Best Thing - We Tried
TTITLE7=Mike Bentley - A Thousand Miles From Home
TTITLE8=The Kickin Grass Band - Hometown
TTITLE9=The Kirby Knob Boys - Life On The Delta
TTITLE10=Lakeside - I'll Have a Mansion
TTITLE11=The Lawsons - I Heard My Mother Call My Name In Prayer
TTITLE12=Rosebud Blue - Wedding Blues
TTITLE13=Lonesome Meadow - Cold, Dark and Stormy
TTITLE14=Louie Setzer and The Appalachian Mountain Boys - Suppertime
EXTD=
EXTT0=
EXTT1=
EXTT2=
EXTT3=
EXTT4=
EXTT5=
EXTT6=
EXTT7=
EXTT8=
EXTT9=
EXTT10=
EXTT11=
EXTT12=
EXTT13=
EXTT14=
PLAYORDER=
